<mxfile host="app.diagrams.net" agent="Mozilla/5.0 (Macintosh; Intel Mac OS X 10_15_7) AppleWebKit/537.36 (KHTML, like Gecko) Chrome/140.0.0.0 Safari/537.36" version="28.2.5">
  <diagram name="PÃ¡gina-1" id="KjdVIKa1jAfISxzT7Uvp">
    <mxGraphModel dx="1426" dy="766" grid="1" gridSize="10" guides="1" tooltips="1" connect="1" arrows="1" fold="1" page="1" pageScale="1" pageWidth="827" pageHeight="1169" math="0" shadow="0">
      <root>
        <mxCell id="0" />
        <mxCell id="1" parent="0" />
        <mxCell id="H6QyV2BTmWgNA0v3FLMX-1" value="COCKPIT PIM" style="rounded=0;whiteSpace=wrap;html=1;" vertex="1" parent="1">
          <mxGeometry x="80" y="290" width="120" height="60" as="geometry" />
        </mxCell>
        <mxCell id="H6QyV2BTmWgNA0v3FLMX-11" style="edgeStyle=orthogonalEdgeStyle;rounded=0;orthogonalLoop=1;jettySize=auto;html=1;exitX=1;exitY=0.5;exitDx=0;exitDy=0;" edge="1" parent="1" source="H6QyV2BTmWgNA0v3FLMX-2" target="H6QyV2BTmWgNA0v3FLMX-3">
          <mxGeometry relative="1" as="geometry" />
        </mxCell>
        <mxCell id="H6QyV2BTmWgNA0v3FLMX-17" style="edgeStyle=orthogonalEdgeStyle;rounded=0;orthogonalLoop=1;jettySize=auto;html=1;exitX=0;exitY=0.75;exitDx=0;exitDy=0;entryX=1;entryY=0.75;entryDx=0;entryDy=0;" edge="1" parent="1" source="H6QyV2BTmWgNA0v3FLMX-2" target="H6QyV2BTmWgNA0v3FLMX-1">
          <mxGeometry relative="1" as="geometry" />
        </mxCell>
        <mxCell id="H6QyV2BTmWgNA0v3FLMX-2" value="" style="rounded=0;whiteSpace=wrap;html=1;" vertex="1" parent="1">
          <mxGeometry x="310" y="80" width="40" height="340" as="geometry" />
        </mxCell>
        <mxCell id="H6QyV2BTmWgNA0v3FLMX-12" style="edgeStyle=orthogonalEdgeStyle;rounded=0;orthogonalLoop=1;jettySize=auto;html=1;entryX=0;entryY=0.5;entryDx=0;entryDy=0;" edge="1" parent="1" source="H6QyV2BTmWgNA0v3FLMX-3" target="H6QyV2BTmWgNA0v3FLMX-4">
          <mxGeometry relative="1" as="geometry" />
        </mxCell>
        <mxCell id="H6QyV2BTmWgNA0v3FLMX-13" style="edgeStyle=orthogonalEdgeStyle;rounded=0;orthogonalLoop=1;jettySize=auto;html=1;entryX=0;entryY=0.5;entryDx=0;entryDy=0;" edge="1" parent="1" source="H6QyV2BTmWgNA0v3FLMX-3" target="H6QyV2BTmWgNA0v3FLMX-5">
          <mxGeometry relative="1" as="geometry" />
        </mxCell>
        <mxCell id="H6QyV2BTmWgNA0v3FLMX-16" style="edgeStyle=orthogonalEdgeStyle;rounded=0;orthogonalLoop=1;jettySize=auto;html=1;entryX=0;entryY=0.5;entryDx=0;entryDy=0;" edge="1" parent="1" source="H6QyV2BTmWgNA0v3FLMX-3" target="H6QyV2BTmWgNA0v3FLMX-15">
          <mxGeometry relative="1" as="geometry">
            <Array as="points">
              <mxPoint x="590" y="250" />
              <mxPoint x="590" y="390" />
            </Array>
          </mxGeometry>
        </mxCell>
        <mxCell id="H6QyV2BTmWgNA0v3FLMX-3" value="MDM" style="rounded=0;whiteSpace=wrap;html=1;" vertex="1" parent="1">
          <mxGeometry x="430" y="220" width="120" height="60" as="geometry" />
        </mxCell>
        <mxCell id="H6QyV2BTmWgNA0v3FLMX-4" value="SAP ECC" style="rounded=0;whiteSpace=wrap;html=1;" vertex="1" parent="1">
          <mxGeometry x="630" y="170" width="120" height="60" as="geometry" />
        </mxCell>
        <mxCell id="H6QyV2BTmWgNA0v3FLMX-5" value="SAP 4HANA" style="rounded=0;whiteSpace=wrap;html=1;" vertex="1" parent="1">
          <mxGeometry x="630" y="260" width="120" height="60" as="geometry" />
        </mxCell>
        <mxCell id="H6QyV2BTmWgNA0v3FLMX-6" value="CORE &amp;amp; OPS" style="text;html=1;align=center;verticalAlign=middle;whiteSpace=wrap;rounded=0;" vertex="1" parent="1">
          <mxGeometry x="290" y="50" width="80" height="30" as="geometry" />
        </mxCell>
        <mxCell id="H6QyV2BTmWgNA0v3FLMX-7" style="edgeStyle=orthogonalEdgeStyle;rounded=0;orthogonalLoop=1;jettySize=auto;html=1;entryX=0;entryY=0.706;entryDx=0;entryDy=0;entryPerimeter=0;" edge="1" parent="1" source="H6QyV2BTmWgNA0v3FLMX-1" target="H6QyV2BTmWgNA0v3FLMX-2">
          <mxGeometry relative="1" as="geometry" />
        </mxCell>
        <mxCell id="H6QyV2BTmWgNA0v3FLMX-8" value="CONSUMIDORES" style="rounded=0;whiteSpace=wrap;html=1;" vertex="1" parent="1">
          <mxGeometry x="80" y="120" width="120" height="60" as="geometry" />
        </mxCell>
        <mxCell id="H6QyV2BTmWgNA0v3FLMX-10" style="edgeStyle=orthogonalEdgeStyle;rounded=0;orthogonalLoop=1;jettySize=auto;html=1;exitX=1;exitY=0.5;exitDx=0;exitDy=0;entryX=0.025;entryY=0.206;entryDx=0;entryDy=0;entryPerimeter=0;" edge="1" parent="1" source="H6QyV2BTmWgNA0v3FLMX-8" target="H6QyV2BTmWgNA0v3FLMX-2">
          <mxGeometry relative="1" as="geometry" />
        </mxCell>
        <mxCell id="H6QyV2BTmWgNA0v3FLMX-14" style="edgeStyle=orthogonalEdgeStyle;rounded=0;orthogonalLoop=1;jettySize=auto;html=1;exitX=0;exitY=0.25;exitDx=0;exitDy=0;entryX=0.95;entryY=0.456;entryDx=0;entryDy=0;entryPerimeter=0;" edge="1" parent="1" source="H6QyV2BTmWgNA0v3FLMX-3" target="H6QyV2BTmWgNA0v3FLMX-2">
          <mxGeometry relative="1" as="geometry" />
        </mxCell>
        <mxCell id="H6QyV2BTmWgNA0v3FLMX-15" value="OTROS ERPS" style="rounded=0;whiteSpace=wrap;html=1;" vertex="1" parent="1">
          <mxGeometry x="630" y="360" width="120" height="60" as="geometry" />
        </mxCell>
      </root>
    </mxGraphModel>
  </diagram>
</mxfile>
